<svg width="100" height="101" viewBox="0 0 100 101" fill="none" xmlns="http://www.w3.org/2000/svg">
<path d="M0 50.8262C0 78.4404 22.3858 100.826 50 100.826C77.6142 100.826 100 78.4404 100 50.8262C100 23.2119 77.6142 0.826172 50 0.826172C22.3858 0.826172 0 23.2119 0 50.8262Z" fill="#1877F2"/>
<path d="M75 50.8262C75 37.0762 63.75 25.8262 50 25.8262C36.25 25.8262 25 37.0762 25 50.8262C25 63.3262 34.0625 73.6387 45.9375 75.5137V58.0137H39.6875V50.8262H45.9375V45.2012C45.9375 38.9512 49.6875 35.5137 55.3125 35.5137C58.125 35.5137 60.9375 36.1387 60.9375 36.1387V42.3887H57.8125C54.6875 42.3887 53.75 44.2637 53.75 46.1387V50.8262H60.625L59.375 58.0137H53.4375V75.8262C65.9375 73.9512 75 63.3262 75 50.8262Z" fill="white"/>
</svg>
