<svg width="46" height="46" viewBox="0 0 46 46" fill="none" xmlns="http://www.w3.org/2000/svg">
<circle cx="23" cy="23" r="23" fill="#D9D9D9"/>
<mask id="mask0_208_315" style="mask-type:alpha" maskUnits="userSpaceOnUse" x="15" y="25" width="16" height="8">
<path fill-rule="evenodd" clip-rule="evenodd" d="M15 25.4961H30.8399V32.8701H15V25.4961Z" fill="white"/>
</mask>
<g mask="url(#mask0_208_315)">
<path fill-rule="evenodd" clip-rule="evenodd" d="M22.921 26.9961C18.66 26.9961 16.5 27.7281 16.5 29.1731C16.5 30.6311 18.66 31.3701 22.921 31.3701C27.181 31.3701 29.34 30.6381 29.34 29.1931C29.34 27.7351 27.181 26.9961 22.921 26.9961ZM22.921 32.8701C20.962 32.8701 15 32.8701 15 29.1731C15 25.8771 19.521 25.4961 22.921 25.4961C24.88 25.4961 30.84 25.4961 30.84 29.1931C30.84 32.4891 26.32 32.8701 22.921 32.8701Z" fill="white"/>
</g>
<mask id="mask1_208_315" style="mask-type:alpha" maskUnits="userSpaceOnUse" x="17" y="13" width="12" height="11">
<path fill-rule="evenodd" clip-rule="evenodd" d="M17.6104 13.0001H28.2304V23.6187H17.6104V13.0001Z" fill="white"/>
</mask>
<g mask="url(#mask1_208_315)">
<path fill-rule="evenodd" clip-rule="evenodd" d="M22.9214 14.4277C20.7804 14.4277 19.0384 16.1687 19.0384 18.3097C19.0314 20.4437 20.7604 22.1837 22.8924 22.1917L22.9214 22.9057V22.1917C25.0614 22.1917 26.8024 20.4497 26.8024 18.3097C26.8024 16.1687 25.0614 14.4277 22.9214 14.4277ZM22.9214 23.6187H22.8894C19.9674 23.6097 17.6004 21.2267 17.6104 18.3067C17.6104 15.3817 19.9924 12.9997 22.9214 12.9997C25.8494 12.9997 28.2304 15.3817 28.2304 18.3097C28.2304 21.2377 25.8494 23.6187 22.9214 23.6187Z" fill="white"/>
</g>
</svg>
