<svg width="300" height="300" viewBox="0 0 300 300" fill="none" xmlns="http://www.w3.org/2000/svg">
<rect width="300" height="300" fill="#F5F5F5"/>
<rect width="232.531" height="232.531" transform="translate(34 34)" fill="#F5F5F5"/>
<mask id="mask0_427_7821" style="mask-type:alpha" maskUnits="userSpaceOnUse" x="53" y="53" width="194" height="194">
<path fill-rule="evenodd" clip-rule="evenodd" d="M53.3815 53.3795H246.766V246.669H53.3815V53.3795Z" fill="white"/>
</mask>
<g mask="url(#mask0_427_7821)">
<path fill-rule="evenodd" clip-rule="evenodd" d="M108.123 67.9108C83.6977 67.9108 67.9147 84.6433 67.9147 110.532V189.515C67.9147 215.413 83.6977 232.136 108.123 232.136H191.931C216.415 232.136 232.237 215.413 232.237 189.515V110.532C232.237 84.6433 216.415 67.9108 191.931 67.9108H108.123ZM191.931 246.669H108.123C75.375 246.669 53.3815 223.697 53.3815 189.515V110.532C53.3815 76.3497 75.375 53.3776 108.123 53.3776H191.931C224.728 53.3776 246.77 76.3497 246.77 110.532V189.515C246.77 223.697 224.728 246.669 191.931 246.669V246.669Z" fill="#AFB1B6"/>
</g>
<path fill-rule="evenodd" clip-rule="evenodd" d="M85.1705 200.457C83.3683 200.457 81.5759 199.799 80.171 198.462C77.2547 195.71 77.1385 191.098 79.8998 188.201L94.7042 172.573C102.542 164.25 115.768 163.843 124.129 171.691L133.411 181.109C135.998 183.725 140.203 183.773 142.799 181.215C143.778 180.062 164.88 154.436 164.88 154.436C168.891 149.572 174.55 146.568 180.838 145.948C187.135 145.396 193.249 147.227 198.122 151.229C198.539 151.568 198.917 151.897 220.194 173.745C222.994 176.613 222.945 181.215 220.068 184.016C217.2 186.835 212.588 186.748 209.788 183.88C209.788 183.88 189.935 163.504 188.521 162.129C187.019 160.898 184.607 160.181 182.233 160.414C179.82 160.656 177.65 161.809 176.11 163.679C153.593 190.991 153.321 191.253 152.953 191.612C144.64 199.769 131.221 199.634 123.054 191.301C123.054 191.301 114.043 182.155 113.888 181.971C111.65 179.898 107.658 180.033 105.265 182.562L90.4412 198.19C89.0072 199.702 87.0888 200.457 85.1705 200.457V200.457Z" fill="#AFB1B6"/>
<path fill-rule="evenodd" clip-rule="evenodd" d="M116.913 112.759C111.555 112.759 107.195 117.119 107.195 122.487C107.195 127.854 111.555 132.224 116.922 132.224C122.29 132.224 126.66 127.854 126.66 122.487C126.66 117.129 122.29 112.769 116.913 112.759M116.922 146.757C103.542 146.757 92.6617 135.867 92.6617 122.487C92.6617 109.107 103.542 98.2261 116.922 98.2261C130.312 98.2358 141.193 109.126 141.193 122.487C141.193 135.867 130.303 146.757 116.922 146.757" fill="#AFB1B6"/>
<path d="M162.723 211.455L246.611 146.649L265.983 177V242.868L158.57 248.826L162.723 211.455Z" fill="#F5F5F5"/>
<mask id="mask1_427_7821" style="mask-type:alpha" maskUnits="userSpaceOnUse" x="166" y="151" width="103" height="111">
<path fill-rule="evenodd" clip-rule="evenodd" d="M180.703 151.885L268.981 164.505L255.069 261.82L166.792 249.2L180.703 151.885Z" fill="white"/>
</mask>
<g mask="url(#mask1_427_7821)">
<path fill-rule="evenodd" clip-rule="evenodd" d="M236.309 170.408L179.284 223.994C178.248 224.968 177.721 226.34 177.85 227.748L179.23 243.072L194.873 245.109C196.36 245.306 197.827 244.839 198.898 243.838C218.384 225.52 255.533 190.595 256.593 189.567C257.631 188.32 258.236 186.435 258.06 184.512C257.88 182.541 256.925 180.753 255.361 179.476C255.033 179.172 247.335 171.213 247.098 170.964C244.214 167.888 239.396 167.661 236.309 170.408V170.408ZM175.081 250.385C173.298 250.13 171.921 248.686 171.754 246.884L170.095 228.448C169.755 224.629 171.163 220.94 173.955 218.319L231.011 164.701C231.035 164.683 231.054 164.66 231.077 164.642C237.292 159.055 247.024 159.492 252.755 165.612C252.984 165.849 260.625 173.758 260.625 173.758C263.483 176.065 265.448 179.738 265.811 183.806C266.174 187.832 264.931 191.755 262.303 194.845C262.108 195.074 261.938 195.27 204.226 249.518C201.447 252.12 197.668 253.326 193.864 252.829L175.132 250.393L175.081 250.385Z" fill="#AFB1B6"/>
</g>
<path fill-rule="evenodd" clip-rule="evenodd" d="M247.405 206.956C246.583 206.838 245.798 206.458 245.171 205.823L220.234 180.3C218.733 178.764 218.76 176.304 220.297 174.793C221.838 173.294 224.298 173.326 225.803 174.862L250.746 200.381C252.247 201.917 252.219 204.382 250.678 205.887C249.781 206.766 248.561 207.121 247.405 206.956" fill="#AFB1B6"/>
</svg>
