<svg width="100" height="101" viewBox="0 0 100 101" fill="none" xmlns="http://www.w3.org/2000/svg">
<path d="M0 50.8262C0 78.4404 22.3858 100.826 50 100.826C77.6142 100.826 100 78.4404 100 50.8262C100 23.2119 77.6142 0.826172 50 0.826172C22.3858 0.826172 0 23.2119 0 50.8262Z" fill="#F00073"/>
<path d="M50 29.5762C56.875 29.5762 57.8125 29.5762 60.625 29.5762C63.125 29.5762 64.375 30.2012 65.3125 30.5137C66.5625 31.1387 67.5 31.4512 68.4375 32.3887C69.375 33.3262 70 34.2637 70.3125 35.5137C70.625 36.4512 70.9375 37.7012 71.25 40.2012C71.25 43.0137 71.25 43.6387 71.25 50.8262C71.25 58.0137 71.25 58.6387 71.25 61.4512C71.25 63.9512 70.625 65.2012 70.3125 66.1387C69.6875 67.3887 69.375 68.3262 68.4375 69.2637C67.5 70.2012 66.5625 70.8262 65.3125 71.1387C64.375 71.4512 63.125 71.7637 60.625 72.0762C57.8125 72.0762 57.1875 72.0762 50 72.0762C42.8125 72.0762 42.1875 72.0762 39.375 72.0762C36.875 72.0762 35.625 71.4512 34.6875 71.1387C33.4375 70.5137 32.5 70.2012 31.5625 69.2637C30.625 68.3262 30 67.3887 29.6875 66.1387C29.375 65.2012 29.0625 63.9512 28.75 61.4512C28.75 58.6387 28.75 58.0137 28.75 50.8262C28.75 43.6387 28.75 43.0137 28.75 40.2012C28.75 37.7012 29.375 36.4512 29.6875 35.5137C30.3125 34.2637 30.625 33.3262 31.5625 32.3887C32.5 31.4512 33.4375 30.8262 34.6875 30.5137C35.625 30.2012 36.875 29.8887 39.375 29.5762C42.1875 29.5762 43.125 29.5762 50 29.5762ZM50 24.8887C42.8125 24.8887 42.1875 24.8887 39.375 24.8887C36.5625 24.8887 34.6875 25.5137 33.125 26.1387C31.5625 26.7637 30 27.7012 28.4375 29.2637C26.875 30.8262 26.25 32.0762 25.3125 33.9512C24.6875 35.5137 24.375 37.3887 24.0625 40.2012C24.0625 43.0137 24.0625 43.9512 24.0625 50.8262C24.0625 58.0137 24.0625 58.6387 24.0625 61.4512C24.0625 64.2637 24.6875 66.1387 25.3125 67.7012C25.9375 69.2637 26.875 70.8262 28.4375 72.3887C30 73.9512 31.25 74.5762 33.125 75.5137C34.6875 76.1387 36.5625 76.4512 39.375 76.7637C42.1875 76.7637 43.125 76.7637 50 76.7637C56.875 76.7637 57.8125 76.7637 60.625 76.7637C63.4375 76.7637 65.3125 76.1387 66.875 75.5137C68.4375 74.8887 70 73.9512 71.5625 72.3887C73.125 70.8262 73.75 69.5762 74.6875 67.7012C75.3125 66.1387 75.625 64.2637 75.9375 61.4512C75.9375 58.6387 75.9375 57.7012 75.9375 50.8262C75.9375 43.9512 75.9375 43.0137 75.9375 40.2012C75.9375 37.3887 75.3125 35.5137 74.6875 33.9512C74.0625 32.3887 73.125 30.8262 71.5625 29.2637C70 27.7012 68.75 27.0762 66.875 26.1387C65.3125 25.5137 63.4375 25.2012 60.625 24.8887C57.8125 24.8887 57.1875 24.8887 50 24.8887Z" fill="white"/>
<path d="M50 37.3887C42.5 37.3887 36.5625 43.3262 36.5625 50.8262C36.5625 58.3262 42.5 64.2637 50 64.2637C57.5 64.2637 63.4375 58.3262 63.4375 50.8262C63.4375 43.3262 57.5 37.3887 50 37.3887ZM50 59.5762C45.3125 59.5762 41.25 55.8262 41.25 50.8262C41.25 46.1387 45 42.0762 50 42.0762C54.6875 42.0762 58.75 45.8262 58.75 50.8262C58.75 55.5137 54.6875 59.5762 50 59.5762Z" fill="white"/>
<path d="M63.75 40.2012C65.4759 40.2012 66.875 38.8021 66.875 37.0762C66.875 35.3503 65.4759 33.9512 63.75 33.9512C62.0241 33.9512 60.625 35.3503 60.625 37.0762C60.625 38.8021 62.0241 40.2012 63.75 40.2012Z" fill="white"/>
</svg>
