<svg width="22" height="24" viewBox="0 0 22 24" fill="none" xmlns="http://www.w3.org/2000/svg">
<path fill-rule="evenodd" clip-rule="evenodd" d="M10.1541 22H5.87888C3.74038 22 2 20.011 2 17.565V6.436C2 3.99 3.74038 2 5.87888 2H10.1445C12.2847 2 14.026 3.99 14.026 6.436V7.368C14.026 7.782 13.732 8.118 13.3698 8.118C13.0075 8.118 12.7135 7.782 12.7135 7.368V6.436C12.7135 4.816 11.5611 3.5 10.1445 3.5H5.87888C4.464 3.5 3.3125 4.816 3.3125 6.436V17.565C3.3125 19.184 4.464 20.5 5.87888 20.5H10.1541C11.5646 20.5 12.7135 19.188 12.7135 17.576V16.633C12.7135 16.219 13.0075 15.883 13.3698 15.883C13.732 15.883 14.026 16.219 14.026 16.633V17.576C14.026 20.016 12.2883 22 10.1541 22Z" fill="black"/>
<mask id="mask0_216_1750" style="mask-type:alpha" maskUnits="userSpaceOnUse" x="8" y="11" width="12" height="2">
<path fill-rule="evenodd" clip-rule="evenodd" d="M8.12109 11.25H19.9694V12.75H8.12109V11.25Z" fill="white"/>
</mask>
<g mask="url(#mask0_216_1750)">
<path fill-rule="evenodd" clip-rule="evenodd" d="M19.3132 12.75H8.77734C8.41509 12.75 8.12109 12.414 8.12109 12C8.12109 11.586 8.41509 11.25 8.77734 11.25H19.3132C19.6755 11.25 19.9695 11.586 19.9695 12C19.9695 12.414 19.6755 12.75 19.3132 12.75Z" fill="black"/>
</g>
<mask id="mask1_216_1750" style="mask-type:alpha" maskUnits="userSpaceOnUse" x="16" y="8" width="4" height="8">
<path fill-rule="evenodd" clip-rule="evenodd" d="M16.0957 8.33525H19.9696V15.666H16.0957V8.33525Z" fill="white"/>
</mask>
<g mask="url(#mask1_216_1750)">
<path fill-rule="evenodd" clip-rule="evenodd" d="M16.7517 15.666C16.5837 15.666 16.4149 15.593 16.2871 15.445C16.0316 15.151 16.0325 14.677 16.2889 14.385L18.3836 12L16.2889 9.616C16.0325 9.324 16.0307 8.85 16.2871 8.556C16.5426 8.262 16.9574 8.262 17.2146 8.554L19.7766 11.469C19.9009 11.609 19.97 11.801 19.97 12C19.97 12.199 19.9009 12.391 19.7766 12.531L17.2146 15.447C17.0869 15.593 16.9189 15.666 16.7517 15.666Z" fill="black"/>
</g>
</svg>
