<svg width="219" height="426" viewBox="0 0 219 426" fill="none" xmlns="http://www.w3.org/2000/svg">
<path d="M33.5 423V423.5H34.5V423H33.5ZM34.5 423V127H33.5V423H34.5Z" fill="#D9D9D9"/>
<path d="M8.5 423L8.5 423.5L9.5 423.5L9.5 423L8.5 423ZM9.5 423L9.5 311L8.5 311L8.5 423L9.5 423Z" fill="#D9D9D9"/>
<path d="M205.5 423L205.5 423.5L206.5 423.5L206.5 423L205.5 423ZM206.5 423L206.5 245L205.5 245L205.5 423L206.5 423Z" fill="#D9D9D9"/>
<path d="M65.5172 422.998L65.5155 423.498L66.5155 423.502L66.5172 423.002L65.5172 422.998ZM66.5172 423.002L67.5 138.002L66.5 137.998L65.5172 422.998L66.5172 423.002Z" fill="#D9D9D9"/>
<path d="M0.5 425H218" stroke="#D9D9D9" stroke-linecap="square"/>
<path d="M113.5 423V423.5H114.5V423H113.5ZM114.5 423V68H113.5V423H114.5Z" fill="#D9D9D9"/>
<path d="M139.5 423L139.5 423.5L140.5 423.5L140.5 423L139.5 423ZM140.5 423L140.5 56L139.5 56L139.5 423L140.5 423Z" fill="#D9D9D9"/>
<path d="M173.488 422.999L173.487 423.499L174.487 423.501L174.488 423.001L173.488 422.999ZM174.488 423.001L175.5 1.0012L174.5 0.998801L173.488 422.999L174.488 423.001Z" fill="#D9D9D9"/>
</svg>
