<svg width="100" height="101" viewBox="0 0 100 101" fill="none" xmlns="http://www.w3.org/2000/svg">
<path d="M0 50.8262C0 78.4404 22.3858 100.826 50 100.826C77.6142 100.826 100 78.4404 100 50.8262C100 23.2119 77.6142 0.826172 50 0.826172C22.3858 0.826172 0 23.2119 0 50.8262Z" fill="#0088CC"/>
<path d="M25.3122 49.9146C38.734 44.067 47.6839 40.2118 52.162 38.3492C64.948 33.0311 67.6048 32.1073 69.3365 32.0765C69.7173 32.0701 70.5689 32.1645 71.1205 32.6121C71.5863 32.99 71.7145 33.5006 71.7758 33.8589C71.8371 34.2172 71.9135 35.0335 71.8528 35.6714C71.1599 42.9515 68.1618 60.6183 66.6366 68.7722C65.9912 72.2224 64.7204 73.3792 63.4902 73.4924C60.8165 73.7384 58.7862 71.7255 56.1967 70.028C52.1445 67.3717 49.8553 65.7182 45.922 63.1262C41.3763 60.1307 44.3231 58.4843 46.9136 55.7936C47.5916 55.0895 59.3718 44.3745 59.5998 43.4025C59.6283 43.2809 59.6548 42.8278 59.3856 42.5885C59.1164 42.3492 58.719 42.431 58.4323 42.4961C58.0259 42.5883 51.5525 46.867 39.0122 55.3321C37.1747 56.5938 35.5104 57.2086 34.0192 57.1764C32.3754 57.1409 29.2132 56.2469 26.8624 55.4828C23.9791 54.5455 21.6876 54.05 21.8871 52.4583C21.991 51.6292 23.1328 50.7813 25.3122 49.9146Z" fill="white"/>
</svg>
